bicep_curl
version=1
nRows=101
nColumns=3
inDegrees=yes

# SIMM Motion File Header:
name bicep_curl
datacolumns 3
datarows 101
otherdata 1
range 0.0000 1.0000
endheader
time	/jointset/r_shoulder/r_shoulder_elev/value	/jointset/r_elbow/r_elbow_flex/value
0.0000	0.0000	10.0000
0.0100	0.0000	10.0000
0.0200	0.0000	10.0000
0.0300	0.0000	10.0000
0.0400	0.0000	10.0000
0.0500	0.0000	10.0000
0.0600	0.0000	10.0000
0.0700	0.0000	10.0000
0.0800	0.0000	10.0000
0.0900	0.0000	10.0000
0.1000	0.0000	10.0000
0.1100	0.0000	94.1471
0.1200	0.0000	100.9297
0.1300	0.0000	24.1120
0.1400	0.0000	0.0000
0.1500	0.0000	0.0000
0.1600	0.0000	0.0000
0.1700	0.0000	75.6987
0.1800	0.0000	108.9358
0.1900	0.0000	51.2118
0.2000	0.0000	0.0000
0.2100	0.0000	0.0000
0.2200	0.0000	0.0000
0.2300	0.0000	52.0167
0.2400	0.0000	109.0607
0.2500	0.0000	75.0288
0.2600	0.0000	0.0000
0.2700	0.0000	0.0000
0.2800	0.0000	0.0000
0.2900	0.0000	24.9877
0.3000	0.0000	101.2945
0.3100	0.0000	93.6656
0.3200	0.0000	9.1149
0.3300	0.0000	0.0000
0.3400	0.0000	0.0000
0.3500	0.0000	0.0000
0.3600	0.0000	86.2558
0.3700	0.0000	105.6376
0.3800	0.0000	37.0906
0.3900	0.0000	0.0000
0.4000	0.0000	0.0000
0.4100	0.0000	0.0000
0.4200	0.0000	65.1427
0.4300	0.0000	109.9912
0.4400	0.0000	62.9083
0.4500	0.0000	0.0000
0.4600	0.0000	0.0000
0.4700	0.0000	0.0000
0.4800	0.0000	39.6369
0.4900	0.0000	106.3795
0.5000	0.0000	84.5113
0.5100	0.0000	0.0000
0.5200	0.0000	0.0000
0.5300	0.0000	0.0000
0.5400	0.0000	11.7702
0.5500	0.0000	95.0904
0.5600	0.0000	100.1788
0.5700	0.0000	22.3573
0.5800	0.0000	0.0000
0.5900	0.0000	0.0000
0.6000	0.0000	0.0000
0.6100	0.0000	77.0229
0.6200	0.0000	108.6628
0.6300	0.0000	49.5925
0.6400	0.0000	0.0000
0.6500	0.0000	0.0000
0.6600	0.0000	0.0000
0.6700	0.0000	53.6165
0.6800	0.0000	109.2873
0.6900	0.0000	73.6738
0.7000	0.0000	0.0000
0.7100	0.0000	0.0000
0.7200	0.0000	0.0000
0.7300	0.0000	26.7356
0.7400	0.0000	102.0026
0.7500	0.0000	92.6829
0.7600	0.0000	7.3449
0.7700	0.0000	0.0000
0.7800	0.0000	0.0000
0.7900	0.0000	0.0000
0.8000	0.0000	87.3891
0.8100	0.0000	105.1055
0.8200	0.0000	35.3823
0.8300	0.0000	0.0000
0.8400	0.0000	0.0000
0.8500	0.0000	0.0000
0.8600	0.0000	66.6108
0.8700	0.0000	109.9520
0.8800	0.0000	61.3978
0.8900	0.0000	0.0000
0.9000	0.0000	0.0000
0.9100	0.0000	0.0000
0.9200	0.0000	41.3229
0.9300	0.0000	106.8364
0.9400	0.0000	83.3190
0.9500	0.0000	0.0000
0.9600	0.0000	0.0000
0.9700	0.0000	0.0000
0.9800	0.0000	13.5398
0.9900	0.0000	96.0069
1.0000	0.0000	99.3997
